<svg width="60" height="60" viewBox="0 0 500 500" version="1.1" xmlns="http://www.w3.org/2000/svg" xmlns:xlink="http://www.w3.org/1999/xlink" xml:space="preserve" xmlns:serif="http://www.serif.com/" style="fill-rule:evenodd;clip-rule:evenodd;stroke-linejoin:round;stroke-miterlimit:2;">
    <g transform="matrix(1,0,0,1,-580,-1100.29)">
        <g id="_-" serif:id=" " transform="matrix(1,0,0,1,580,1100.29)">
            <rect x="0" y="0" width="500" height="500" style="fill:none;"/>
            <g transform="matrix(1.61017,0,0,1.37596,-81.0552,-48.8687)">
                <g transform="matrix(1,0,0,1,12.3591,0)">
                    <path d="M163.884,145.082L163.884,188.338C163.884,194.224 163.024,200.607 161.305,207.485C159.585,214.298 157.072,220.978 153.765,227.526L123.009,289.334L101.183,289.334L137.494,217.704L137.395,221.276C135.675,224.384 133.129,226.633 129.756,228.022C126.382,229.411 122.48,230.105 118.049,230.105C107.665,230.105 99.298,226.269 92.949,218.597C86.599,210.859 83.424,200.607 83.424,187.842L83.424,145.082M103.663,145.082L103.663,187.147C103.663,194.952 105.383,201.004 108.822,205.303C112.328,209.536 117.288,211.652 123.704,211.652C130.053,211.652 134.948,209.503 138.387,205.204C141.892,200.904 143.645,194.853 143.645,187.048L144.336,145.082" style="fill-rule:nonzero;"/>
                </g>
                <path d="M265.178,145.082L265.178,163.138L227.875,289.334L206.346,289.334L243.649,164.329L206.941,164.329L206.941,185.064L186.702,185.064L186.702,145.082L265.178,145.082Z" style="fill:rgb(21,96,189);fill-rule:nonzero;"/>
                <g transform="matrix(1,0,0,1,-12.3591,0)">
                    <path d="M327.78,145.082L327.78,289.334L307.541,289.334L307.541,167.107L287.004,179.706L287.004,158.773L307.541,145.082L327.78,145.082Z" style="fill:rgb(21,96,189);fill-rule:nonzero;"/>
                </g>
            </g>
        </g>
    </g>
</svg>
